<svg data-v-423bf9ae="" xmlns="http://www.w3.org/2000/svg" viewBox="0 0 394 105" class="iconLeft"><!----><!----><!----><g data-v-423bf9ae="" id="c918fe09-f405-4b58-a092-c67332a2bfae" fill="black" transform="matrix(5.444645881652832,0,0,5.444645881652832,116.92193603515625,14.644329071044922)"><path d="M4.34 1.40L4.34 1.40Q5.92 1.40 7.17 2.10L7.17 2.10L7.17 2.10Q8.41 2.80 9.11 4.04L9.11 4.04L9.11 4.04Q9.81 5.28 9.81 6.86L9.81 6.86L9.81 6.86Q9.81 8.44 9.11 9.69L9.11 9.69L9.11 9.69Q8.41 10.93 7.17 11.63L7.17 11.63L7.17 11.63Q5.92 12.33 4.34 12.33L4.34 12.33L1.82 12.33L1.82 12.33Q1.64 12.33 1.52 12.21L1.52 12.21L1.52 12.21Q1.40 12.10 1.40 11.91L1.40 11.91L1.40 1.82L1.40 1.82Q1.40 1.62 1.52 1.51L1.52 1.51L1.52 1.51Q1.64 1.40 1.82 1.40L1.82 1.40L4.34 1.40ZM4.34 11.58L4.34 11.58Q5.68 11.58 6.73 10.97L6.73 10.97L6.73 10.97Q7.78 10.36 8.38 9.28L8.38 9.28L8.38 9.28Q8.97 8.20 8.97 6.86L8.97 6.86L8.97 6.86Q8.97 5.52 8.38 4.44L8.38 4.44L8.38 4.44Q7.78 3.37 6.73 2.76L6.73 2.76L6.73 2.76Q5.68 2.16 4.34 2.16L4.34 2.16L2.24 2.16L2.24 11.58L4.34 11.58ZM20.27 11.73L20.27 11.73Q20.31 11.82 20.31 11.91L20.31 11.91L20.31 11.91Q20.31 12.08 20.19 12.21L20.19 12.21L20.19 12.21Q20.06 12.33 19.89 12.33L19.89 12.33L19.89 12.33Q19.61 12.33 19.50 12.07L19.50 12.07L18.47 9.59L12.77 9.59L11.73 12.07L11.73 12.07Q11.63 12.33 11.34 12.33L11.34 12.33L11.34 12.33Q11.14 12.33 11.03 12.21L11.03 12.21L11.03 12.21Q10.92 12.08 10.92 11.91L10.92 11.91L10.92 11.91Q10.92 11.82 10.96 11.73L10.96 11.73L15.20 1.69L15.20 1.69Q15.32 1.40 15.61 1.40L15.61 1.40L15.61 1.40Q15.89 1.40 16.02 1.69L16.02 1.69L20.27 11.73ZM13.09 8.83L18.14 8.83L15.61 2.79L13.09 8.83ZM21.90 1.82L21.90 1.82Q21.90 1.64 22.02 1.52L22.02 1.52L22.02 1.52Q22.13 1.40 22.32 1.40L22.32 1.40L22.32 1.40Q22.50 1.40 22.62 1.52L22.62 1.52L22.62 1.52Q22.74 1.64 22.74 1.82L22.74 1.82L22.74 11.91L22.74 11.91Q22.74 12.10 22.62 12.21L22.62 12.21L22.62 12.21Q22.50 12.33 22.32 12.33L22.32 12.33L22.32 12.33Q22.13 12.33 22.02 12.21L22.02 12.21L22.02 12.21Q21.90 12.10 21.90 11.91L21.90 11.91L21.90 1.82ZM28.64 4.59L28.64 4.59Q29.71 4.59 29.71 5.05L29.71 5.05L29.71 5.05Q29.71 5.12 29.69 5.17L29.69 5.17L29.69 5.17Q29.65 5.32 29.56 5.38L29.56 5.38L29.56 5.38Q29.47 5.45 29.32 5.45L29.32 5.45L29.32 5.45Q29.19 5.45 28.99 5.42L28.99 5.42L28.99 5.42Q28.78 5.39 28.64 5.39L28.64 5.39L28.64 5.39Q27.94 5.39 27.40 5.68L27.40 5.68L27.40 5.68Q26.85 5.98 26.54 6.50L26.54 6.50L26.54 6.50Q26.24 7.01 26.24 7.66L26.24 7.66L26.24 11.91L26.24 11.91Q26.24 12.10 26.12 12.21L26.12 12.21L26.12 12.21Q26.01 12.33 25.82 12.33L25.82 12.33L25.82 12.33Q25.63 12.33 25.52 12.21L25.52 12.21L25.52 12.21Q25.40 12.10 25.40 11.91L25.40 11.91L25.40 5.10L25.40 5.10Q25.40 4.90 25.52 4.79L25.52 4.79L25.52 4.79Q25.63 4.68 25.82 4.68L25.82 4.68L25.82 4.68Q26.01 4.68 26.12 4.79L26.12 4.79L26.12 4.79Q26.24 4.90 26.24 5.10L26.24 5.10L26.24 5.96L26.24 5.96Q26.64 5.32 27.27 4.96L27.27 4.96L27.27 4.96Q27.90 4.59 28.64 4.59L28.64 4.59ZM31.81 5.10L31.81 5.10Q31.81 4.90 31.93 4.79L31.93 4.79L31.93 4.79Q32.05 4.68 32.23 4.68L32.23 4.68L32.23 4.68Q32.42 4.68 32.54 4.79L32.54 4.79L32.54 4.79Q32.65 4.90 32.65 5.10L32.65 5.10L32.65 11.91L32.65 11.91Q32.65 12.10 32.54 12.21L32.54 12.21L32.54 12.21Q32.42 12.33 32.23 12.33L32.23 12.33L32.23 12.33Q32.05 12.33 31.93 12.21L31.93 12.21L31.93 12.21Q31.81 12.10 31.81 11.91L31.81 11.91L31.81 5.10ZM32.23 1.76L32.23 1.76Q32.49 1.76 32.68 1.93L32.68 1.93L32.68 1.93Q32.87 2.10 32.87 2.41L32.87 2.41L32.87 2.41Q32.87 2.69 32.68 2.88L32.68 2.88L32.68 2.88Q32.49 3.07 32.21 3.07L32.21 3.07L32.21 3.07Q31.93 3.07 31.75 2.88L31.75 2.88L31.75 2.88Q31.57 2.69 31.57 2.41L31.57 2.41L31.57 2.41Q31.57 2.10 31.77 1.93L31.77 1.93L31.77 1.93Q31.96 1.76 32.23 1.76L32.23 1.76ZM38.63 4.61L38.63 4.61Q39.52 4.61 40.26 4.96L40.26 4.96L40.26 4.96Q41.01 5.31 41.55 5.99L41.55 5.99L41.55 5.99Q41.65 6.13 41.65 6.23L41.65 6.23L41.65 6.23Q41.65 6.43 41.45 6.54L41.45 6.54L41.45 6.54Q41.36 6.62 41.23 6.62L41.23 6.62L41.23 6.62Q41.03 6.62 40.91 6.45L40.91 6.45L40.91 6.45Q40.01 5.39 38.63 5.39L38.63 5.39L38.63 5.39Q37.81 5.39 37.18 5.79L37.18 5.79L37.18 5.79Q36.55 6.19 36.21 6.90L36.21 6.90L36.21 6.90Q35.87 7.62 35.87 8.51L35.87 8.51L35.87 8.51Q35.87 9.39 36.25 10.11L36.25 10.11L36.25 10.11Q36.62 10.82 37.30 11.23L37.30 11.23L37.30 11.23Q37.97 11.63 38.84 11.63L38.84 11.63L38.84 11.63Q40.07 11.63 40.81 10.95L40.81 10.95L40.81 10.95Q40.94 10.82 41.10 10.82L41.10 10.82L41.10 10.82Q41.26 10.82 41.36 10.92L41.36 10.92L41.36 10.92Q41.50 11.05 41.50 11.23L41.50 11.23L41.50 11.23Q41.50 11.38 41.38 11.48L41.38 11.48L41.38 11.48Q40.89 11.93 40.24 12.17L40.24 12.17L40.24 12.17Q39.58 12.42 38.84 12.42L38.84 12.42L38.84 12.42Q37.76 12.42 36.89 11.91L36.89 11.91L36.89 11.91Q36.02 11.40 35.53 10.50L35.53 10.50L35.53 10.50Q35.03 9.60 35.03 8.51L35.03 8.51L35.03 8.51Q35.03 7.41 35.49 6.52L35.49 6.52L35.49 6.52Q35.95 5.63 36.78 5.12L36.78 5.12L36.78 5.12Q37.60 4.61 38.63 4.61L38.63 4.61ZM47.25 4.58L47.25 4.58Q48.27 4.58 49.08 5.00L49.08 5.00L49.08 5.00Q49.88 5.42 50.34 6.22L50.34 6.22L50.34 6.22Q50.79 7.03 50.79 8.15L50.79 8.15L50.79 11.91L50.79 11.91Q50.79 12.10 50.67 12.21L50.67 12.21L50.67 12.21Q50.55 12.33 50.37 12.33L50.37 12.33L50.37 12.33Q50.19 12.33 50.07 12.21L50.07 12.21L50.07 12.21Q49.95 12.10 49.95 11.91L49.95 11.91L49.95 8.15L49.95 8.15Q49.95 6.82 49.20 6.12L49.20 6.12L49.20 6.12Q48.45 5.42 47.25 5.42L47.25 5.42L47.25 5.42Q46.51 5.42 45.90 5.70L45.90 5.70L45.90 5.70Q45.29 5.99 44.94 6.50L44.94 6.50L44.94 6.50Q44.59 7.01 44.59 7.63L44.59 7.63L44.59 11.91L44.59 11.91Q44.59 12.10 44.48 12.21L44.48 12.21L44.48 12.21Q44.37 12.33 44.17 12.33L44.17 12.33L44.17 12.33Q43.99 12.33 43.87 12.21L43.87 12.21L43.87 12.21Q43.75 12.10 43.75 11.91L43.75 11.91L43.75 1.82L43.75 1.82Q43.75 1.62 43.87 1.51L43.87 1.51L43.87 1.51Q43.99 1.40 44.17 1.40L44.17 1.40L44.17 1.40Q44.37 1.40 44.48 1.51L44.48 1.51L44.48 1.51Q44.59 1.62 44.59 1.82L44.59 1.82L44.59 5.82L44.59 5.82Q45.07 5.24 45.75 4.91L45.75 4.91L45.75 4.91Q46.44 4.58 47.25 4.58L47.25 4.58Z"></path></g><!----><g data-v-423bf9ae="" id="9d9286e6-29cb-47c7-9a74-bba01ae5450e" transform="matrix(1.0777223110198975,0,0,1.0777223110198975,-1.4272807836532593,-0.36438053846359253)" stroke="none" fill="black"><path d="M48.628 51.617L1.995 50.241 50.004 98.25zM48.628 47.878l1.376-46.623L2.005 49.254zM52.367 51.617L50.991 98.25 99 50.241zM52.367 47.878l46.623 1.376L50.991 1.255z"></path></g><!----></svg>