<?xml version="1.0" encoding="UTF-8" standalone="no"?>
<svg
   xmlns:dc="http://purl.org/dc/elements/1.1/"
   xmlns:cc="http://creativecommons.org/ns#"
   xmlns:rdf="http://www.w3.org/1999/02/22-rdf-syntax-ns#"
   xmlns:svg="http://www.w3.org/2000/svg"
   xmlns="http://www.w3.org/2000/svg"
   xmlns:sodipodi="http://sodipodi.sourceforge.net/DTD/sodipodi-0.dtd"
   xmlns:inkscape="http://www.inkscape.org/namespaces/inkscape"
   id="Capa_1"
   enable-background="new 0 0 512 512"
   height="512"
   viewBox="0 0 512 512"
   width="512"
   version="1.1"
   sodipodi:docname="robot.svg"
   inkscape:version="0.92.3 (2405546, 2018-03-11)">
  <metadata
     id="metadata21">
    <rdf:RDF>
      <cc:Work
         rdf:about="">
        <dc:format>image/svg+xml</dc:format>
        <dc:type
           rdf:resource="http://purl.org/dc/dcmitype/StillImage" />
      </cc:Work>
    </rdf:RDF>
  </metadata>
  <defs
     id="defs19" />
  <sodipodi:namedview
     pagecolor="#ffffff"
     bordercolor="#666666"
     borderopacity="1"
     objecttolerance="10"
     gridtolerance="10"
     guidetolerance="10"
     inkscape:pageopacity="0"
     inkscape:pageshadow="2"
     inkscape:window-width="1667"
     inkscape:window-height="1004"
     id="namedview17"
     showgrid="false"
     inkscape:zoom="0.4609375"
     inkscape:cx="36.881356"
     inkscape:cy="256"
     inkscape:window-x="1440"
     inkscape:window-y="1105"
     inkscape:window-maximized="0"
     inkscape:current-layer="Capa_1" />
  <g
     id="g14"
     style="fill:#ffffff">
    <path
       d="m219.271 134.24c0-18.041-14.672-32.719-32.705-32.719-18.049 0-32.733 14.678-32.733 32.719 0 18.057 14.685 32.748 32.733 32.748 18.034-.001 32.705-14.691 32.705-32.748zm-45.438 0c0-7.013 5.712-12.719 12.733-12.719 7.006 0 12.705 5.706 12.705 12.719 0 7.029-5.699 12.748-12.705 12.748-7.021-.001-12.733-5.719-12.733-12.748z"
       id="path2"
       style="fill:#ffffff" />
    <path
       d="m325.434 166.987c18.033 0 32.705-14.69 32.705-32.748 0-18.041-14.672-32.719-32.705-32.719-18.049 0-32.733 14.678-32.733 32.719-.001 18.058 14.684 32.748 32.733 32.748zm0-45.466c7.006 0 12.705 5.706 12.705 12.719 0 7.029-5.699 12.748-12.705 12.748-7.021 0-12.733-5.719-12.733-12.748-.001-7.013 5.711-12.719 12.733-12.719z"
       id="path4"
       style="fill:#ffffff" />
    <path
       d="m384.449 364.935h.028c5.522 0 9.986-4.477 9.986-10s-4.492-10-10.015-10-10 4.477-10 10 4.479 10 10.001 10z"
       id="path6"
       style="fill:#ffffff" />
    <path
       d="m468.24 325.393h-23.76v-20.491c0-5.523-4.478-10-10-10h-11.543v-34.854h35.495c5.522 0 10-4.477 10-10 0-52.745-19.454-103.33-54.778-142.436-.183-.202-.371-.398-.555-.6l30.297-30.316c5.397 3.024 11.501 4.641 17.856 4.641 9.787 0 18.988-3.813 25.899-10.729 6.938-6.924 10.76-16.136 10.76-25.939 0-9.8-3.817-19.008-10.75-25.931-6.92-6.925-16.121-10.738-25.908-10.738s-18.988 3.813-25.909 10.738c-11.841 11.847-13.86 29.847-6.078 43.805l-30.306 30.324c-30.989-28.236-69.55-46.682-111.034-52.951v-4.721c0-10.644-8.657-19.303-19.298-19.303h-25.284c-10.641 0-19.298 8.659-19.298 19.303v4.721c-41.483 6.269-80.043 24.716-111.027 52.954l-30.286-30.324c7.784-13.958 5.764-31.961-6.086-43.817-14.309-14.279-37.562-14.273-51.837.009-14.289 14.298-14.289 37.563 0 51.861 7.139 7.143 16.521 10.714 25.909 10.714 6.166 0 12.329-1.551 17.865-4.633l30.298 30.336c-.182.2-.369.395-.551.596-35.315 39.104-54.764 89.688-54.764 142.435 0 5.523 4.478 10 10 10h35.495v34.854h-11.571c-5.522 0-10 4.477-10 10v20.491h-23.731c-24.129 0-43.76 19.64-43.76 43.781v124.827c0 5.523 4.478 10 10 10h492c5.522 0 10-4.477 10-10v-124.827c0-24.14-19.631-43.78-43.76-43.78zm-18.75-292.517c3.143-3.145 7.32-4.876 11.763-4.876s8.62 1.731 11.763 4.876c.003.003.006.006.01.009 3.151 3.145 4.887 7.33 4.887 11.784s-1.735 8.638-4.896 11.792c-3.143 3.144-7.32 4.875-11.763 4.875s-8.62-1.731-11.763-4.875c-6.5-6.502-6.5-17.083-.001-23.585zm-386.97 23.576c-6.508 6.493-17.079 6.499-23.563.01-6.498-6.502-6.498-17.083 0-23.585 6.486-6.49 17.058-6.484 23.554 0 6.498 6.501 6.498 17.082.009 23.575zm4.971 427.548h-47.491v-114.827c0-13.113 10.658-23.781 23.76-23.781h23.731zm176.555-435.336c0-.01 0-.021 0-.032v-12.74h23.88v12.74.032 18.821h-23.88zm-180.225 191.383c4.6-90.375 71.246-165.091 160.225-179.881v8.015c0 10.644 8.657 19.303 19.298 19.303h25.284c10.641 0 19.298-8.659 19.298-19.303v-8.015c88.994 14.791 155.652 89.507 160.253 179.881h-108.55v-33.68c0-5.523-4.478-10-10-10h-147.258c-5.522 0-10 4.477-10 10v33.68zm255.808-23.679v23.68h-29.096v-23.68zm-49.096 0v23.68h-29.095v-23.68zm-49.095 0v23.68h-29.067v-23.68zm-9.892 267.632h-48.938v-52.128h48.938zm68.908 0h-48.908v-52.128h48.908zm68.909 0h-48.909v-52.128h48.909zm75.117 0h-55.117v-62.128c0-5.523-4.478-10-10-10h-206.755c-5.522 0-10 4.477-10 10v62.128h-55.117v-169.098h123.595c5.522 0 10-4.477 10-10s-4.478-10-10-10h-102.023v-34.854h293.875v34.854h-102.052c-5.522 0-10 4.477-10 10s4.478 10 10 10h123.594zm67.52 0h-47.52v-138.607h23.76c13.102 0 23.76 10.668 23.76 23.781z"
       id="path8"
       style="fill:#ffffff" />
    <path
       d="m127.494 344.935c-5.522 0-10 4.477-10 10s4.478 10 10 10h.057c5.522 0 9.972-4.477 9.972-10s-4.506-10-10.029-10z"
       id="path10"
       style="fill:#ffffff" />
    <path
       d="m255.985 294.902c-5.522 0-10 4.477-10 10s4.478 10 10 10h.058c5.522 0 9.972-4.477 9.972-10s-4.507-10-10.03-10z"
       id="path12"
       style="fill:#ffffff" />
  </g>
</svg>
